<svg xmlns="http://www.w3.org/2000/svg" width="57" height="65" stroke="#000" stroke-linecap="round" stroke-linejoin="round" fill="#fff" fill-rule="evenodd"><path d="M35.36 18.138h-6.567l-9.466 24.567h5.93l1.547-4.162h8.944l-1.62-4.604h-5.9l3.83-10.57 6.835 19.337h5.93zM55.633 50.16a1.35 1.35 0 0 0-1.102.571l-1.815 1.983a29.2 29.2 0 0 1-9.313 6.278c-3.6 1.527-7.446 2.3-11.402 2.3a29.1 29.1 0 0 1-11.402-2.301 29.19 29.19 0 0 1-9.312-6.278c-2.6756-2.669-4.8079-5.8318-6.279-9.313-1.529-3.6-2.315-7.445-2.315-11.4s.775-7.792 2.3-11.402c1.4704-3.4817 3.6033-6.6446 6.28-9.313 2.669-2.6754 5.8313-4.8081 9.312-6.28a29.111 29.111 0 0 1 11.402-2.301 29.111 29.111 0 0 1 11.402 2.301c2.54 1.075 4.892 2.5 7.023 4.218a3.32 3.32 0 0 0-.177 1.069c0 1.826 1.48 3.306 3.305 3.306s3.306-1.48 3.306-3.306-1.48-3.305-3.306-3.305a3.291 3.291 0 0 0-1.279.257C46.5521 2.5521 39.3895-.0088 32 0 14.327 0 0 14.327 0 32s14.327 32 32 32c9.886 0 18.72-4.486 24.6-11.53a1.35 1.35 0 0 0 .396-.955c-.001-.75-.606-1.354-1.354-1.354z" stroke="none" fill-rule="nonzero" fill="#6c51d4"/></svg>