<svg id="svg" version="1.1" xmlns="http://www.w3.org/2000/svg" xmlns:xlink="http://www.w3.org/1999/xlink" width="400" height="400" viewBox="0, 0, 400,400"><g id="svgg"><path id="path0" d="M114.212 109.581 C 113.955 109.996,114.294 114.709,115.808 131.800 C 116.354 137.960,116.988 145.340,117.218 148.200 C 117.447 151.060,117.812 155.380,118.028 157.800 C 118.245 160.220,118.598 164.360,118.813 167.000 C 119.028 169.640,119.379 173.780,119.594 176.200 C 120.096 181.869,120.712 188.950,121.227 195.000 C 122.145 205.769,122.373 208.309,122.630 210.639 L 122.900 213.078 170.950 213.342 C 197.378 213.487,224.828 213.722,231.951 213.864 L 244.901 214.123 244.617 216.561 C 244.461 217.903,244.168 220.350,243.968 222.000 C 243.767 223.650,243.412 226.620,243.178 228.600 C 242.945 230.580,242.579 233.640,242.366 235.400 C 242.152 237.160,241.808 240.040,241.600 241.800 C 241.392 243.560,241.033 246.530,240.802 248.400 C 240.570 250.270,240.214 253.330,240.010 255.200 C 239.464 260.205,239.493 260.154,236.876 260.731 C 232.490 261.698,221.948 263.912,212.800 265.788 C 208.950 266.577,205.170 267.383,204.400 267.578 C 201.228 268.382,199.618 268.443,197.139 267.851 C 195.743 267.518,191.720 266.601,188.200 265.814 C 169.432 261.618,168.444 261.390,165.346 260.536 L 163.291 259.970 163.061 257.485 C 162.807 254.742,161.973 247.533,160.831 238.200 C 160.615 236.440,160.315 233.875,160.164 232.500 L 159.889 230.000 142.087 230.000 L 124.286 230.000 124.559 233.300 C 124.890 237.289,125.462 244.008,125.990 250.100 C 126.783 259.256,127.188 263.914,127.581 268.400 C 127.803 270.930,128.173 275.160,128.404 277.800 C 128.636 280.440,128.954 283.671,129.112 284.980 L 129.400 287.361 134.600 288.712 C 137.460 289.455,141.150 290.423,142.800 290.863 C 146.631 291.885,148.304 292.303,149.800 292.612 C 150.460 292.749,151.360 293.013,151.800 293.200 C 152.240 293.387,153.140 293.651,153.800 293.788 C 155.260 294.089,157.262 294.594,159.400 295.200 C 161.115 295.686,162.842 296.132,165.400 296.750 C 166.280 296.963,168.440 297.525,170.200 298.000 C 173.246 298.822,174.480 299.136,177.900 299.962 C 178.725 300.162,181.110 300.775,183.200 301.327 C 185.290 301.878,189.790 303.063,193.200 303.960 C 196.610 304.858,199.767 305.695,200.216 305.821 C 200.664 305.946,202.374 305.691,204.016 305.253 C 209.502 303.790,222.983 300.299,224.400 299.974 C 225.170 299.798,226.475 299.461,227.300 299.227 C 229.901 298.487,231.748 298.000,233.400 297.620 C 234.280 297.417,235.720 297.048,236.600 296.799 C 237.480 296.550,238.875 296.179,239.700 295.973 C 240.525 295.768,241.875 295.432,242.700 295.227 C 243.525 295.021,244.920 294.649,245.800 294.400 C 247.319 293.970,248.459 293.677,251.900 292.832 C 252.725 292.629,254.750 292.103,256.400 291.662 C 258.050 291.221,261.110 290.411,263.200 289.860 C 270.794 287.860,271.789 287.594,272.431 287.390 C 272.946 287.227,273.138 286.403,273.343 283.492 C 273.486 281.461,273.784 277.820,274.006 275.400 C 274.227 272.980,274.583 268.840,274.795 266.200 C 275.008 263.560,275.370 259.330,275.599 256.800 C 276.110 251.182,276.689 244.521,277.200 238.400 C 277.411 235.870,277.764 231.730,277.984 229.200 C 278.204 226.670,278.568 222.440,278.793 219.800 C 279.017 217.160,279.385 212.930,279.609 210.400 C 282.012 183.332,282.331 178.678,281.811 178.306 C 281.585 178.144,252.558 178.009,217.308 178.006 L 153.215 178.000 153.025 177.100 C 152.920 176.605,152.556 172.240,152.216 167.400 C 151.876 162.560,151.421 156.620,151.204 154.200 C 150.988 151.780,150.763 148.270,150.705 146.400 L 150.600 143.000 218.016 142.899 L 285.432 142.798 286.366 132.099 C 287.764 116.072,288.245 109.578,288.046 109.379 C 287.670 109.003,114.445 109.204,114.212 109.581 " stroke="none" fill="#fbfbfa" fill-rule="evenodd"></path><path id="path1" d="M59.950 48.599 C 59.923 48.930,59.867 49.605,59.826 50.100 C 59.785 50.595,59.896 51.414,60.073 51.920 C 60.250 52.426,60.420 54.676,60.451 56.920 C 60.481 59.164,60.650 61.281,60.826 61.624 C 61.003 61.967,61.183 63.857,61.228 65.824 C 61.272 67.791,61.452 69.785,61.627 70.255 C 61.802 70.725,61.989 73.110,62.041 75.555 C 62.093 78.000,62.285 80.000,62.468 80.000 C 62.651 80.000,62.800 81.879,62.800 84.176 C 62.800 86.529,62.975 88.461,63.200 88.600 C 63.427 88.740,63.600 90.730,63.600 93.200 C 63.600 95.670,63.773 97.660,64.000 97.800 C 64.229 97.941,64.400 99.993,64.400 102.590 C 64.400 105.112,64.570 107.193,64.781 107.267 C 64.991 107.340,65.192 109.427,65.228 111.905 C 65.264 114.383,65.452 116.509,65.646 116.629 C 65.841 116.749,66.000 118.712,66.000 120.990 C 66.000 123.303,66.171 125.192,66.387 125.267 C 66.602 125.340,66.799 127.409,66.829 129.900 C 66.859 132.375,67.045 134.400,67.242 134.400 C 67.439 134.400,67.600 136.254,67.600 138.520 C 67.600 140.786,67.771 142.811,67.980 143.020 C 68.189 143.229,68.389 145.425,68.426 147.900 C 68.463 150.375,68.652 152.400,68.846 152.400 C 69.041 152.400,69.200 154.459,69.200 156.976 C 69.200 159.596,69.371 161.658,69.600 161.800 C 69.825 161.939,70.000 163.871,70.000 166.224 C 70.000 168.741,70.159 170.400,70.400 170.400 C 70.643 170.400,70.800 172.192,70.800 174.976 C 70.800 177.596,70.971 179.658,71.200 179.800 C 71.427 179.940,71.600 181.930,71.600 184.400 C 71.600 186.870,71.773 188.860,72.000 189.000 C 72.227 189.140,72.400 191.137,72.400 193.624 C 72.400 196.275,72.558 198.000,72.800 198.000 C 73.042 198.000,73.200 199.725,73.200 202.376 C 73.200 204.863,73.373 206.860,73.600 207.000 C 73.827 207.140,74.000 209.137,74.000 211.624 C 74.000 214.031,74.162 216.000,74.360 216.000 C 74.558 216.000,74.832 218.385,74.969 221.300 C 75.107 224.215,75.284 227.950,75.364 229.600 C 75.444 231.250,75.616 233.410,75.746 234.400 C 76.027 236.535,76.327 240.123,76.616 244.800 C 76.732 246.670,76.920 249.100,77.035 250.200 C 77.369 253.405,77.942 260.229,78.293 265.200 C 78.471 267.730,78.739 269.993,78.888 270.228 C 79.037 270.463,79.188 272.533,79.224 274.828 C 79.260 277.123,79.433 279.180,79.608 279.400 C 79.783 279.620,80.033 281.780,80.163 284.200 C 80.293 286.620,80.581 290.670,80.804 293.200 C 81.027 295.730,81.391 299.870,81.613 302.400 C 81.836 304.930,82.117 308.708,82.239 310.795 C 82.360 312.882,82.606 314.772,82.786 314.995 C 82.965 315.218,83.142 317.470,83.178 320.000 C 83.215 322.530,83.414 324.771,83.622 324.980 C 83.830 325.189,84.000 327.293,84.000 329.656 C 84.000 332.089,84.174 334.060,84.400 334.200 C 84.620 334.336,84.800 334.856,84.800 335.356 C 84.800 335.910,85.152 336.426,85.700 336.677 C 87.208 337.367,89.409 338.000,90.305 338.000 C 90.771 338.000,91.264 338.180,91.400 338.400 C 91.536 338.620,92.267 338.800,93.024 338.800 C 93.781 338.800,94.400 338.980,94.400 339.200 C 94.400 339.420,95.210 339.600,96.200 339.600 C 97.190 339.600,98.000 339.780,98.000 340.000 C 98.000 340.220,98.529 340.400,99.176 340.400 C 99.823 340.400,100.462 340.577,100.596 340.794 C 100.730 341.011,101.236 341.178,101.720 341.166 C 103.271 341.129,106.000 341.694,106.000 342.053 C 106.000 342.244,106.720 342.400,107.600 342.400 C 108.480 342.400,109.200 342.580,109.200 342.800 C 109.200 343.020,109.819 343.200,110.576 343.200 C 111.333 343.200,112.064 343.380,112.200 343.600 C 112.336 343.820,113.157 344.000,114.024 344.000 C 114.891 344.000,115.600 344.180,115.600 344.400 C 115.600 344.620,116.230 344.800,117.000 344.800 C 117.770 344.800,118.400 344.980,118.400 345.200 C 118.400 345.420,119.120 345.600,120.000 345.600 C 120.880 345.600,121.600 345.780,121.600 346.000 C 121.600 346.220,122.140 346.400,122.800 346.400 C 123.460 346.400,124.000 346.580,124.000 346.800 C 124.000 347.020,124.709 347.200,125.576 347.200 C 126.443 347.200,127.264 347.380,127.400 347.600 C 127.536 347.820,128.166 348.000,128.800 348.000 C 129.434 348.000,130.064 348.180,130.200 348.400 C 130.336 348.620,131.056 348.800,131.800 348.800 C 132.544 348.800,133.264 348.980,133.400 349.200 C 133.536 349.420,134.267 349.600,135.024 349.600 C 135.781 349.600,136.400 349.780,136.400 350.000 C 136.400 350.220,137.120 350.400,138.000 350.400 C 138.880 350.400,139.600 350.580,139.600 350.800 C 139.600 351.020,140.320 351.200,141.200 351.200 C 142.080 351.200,142.800 351.360,142.800 351.556 C 142.800 351.752,143.385 352.009,144.100 352.128 C 146.217 352.478,147.748 352.839,148.600 353.188 C 149.040 353.369,150.480 353.744,151.800 354.023 C 153.120 354.301,154.371 354.680,154.580 354.864 C 154.789 355.049,155.554 355.200,156.280 355.200 C 157.006 355.200,157.600 355.380,157.600 355.600 C 157.600 355.820,158.232 356.000,159.005 356.000 C 159.778 356.000,160.723 356.164,161.105 356.364 C 162.318 356.999,168.120 358.470,170.300 358.695 C 171.455 358.814,172.400 359.067,172.400 359.256 C 172.400 359.445,173.120 359.600,174.000 359.600 C 174.880 359.600,175.600 359.780,175.600 360.000 C 175.600 360.220,176.331 360.400,177.224 360.400 C 178.204 360.400,178.749 360.558,178.600 360.800 C 178.453 361.038,178.929 361.200,179.776 361.200 C 180.559 361.200,181.200 361.380,181.200 361.600 C 181.200 361.820,181.819 362.000,182.576 362.000 C 183.333 362.000,184.064 362.180,184.200 362.400 C 184.336 362.620,185.056 362.800,185.800 362.800 C 186.544 362.800,187.264 362.980,187.400 363.200 C 187.536 363.420,188.267 363.600,189.024 363.600 C 189.781 363.600,190.400 363.780,190.400 364.000 C 190.400 364.220,191.131 364.400,192.024 364.400 C 193.004 364.400,193.549 364.558,193.400 364.800 C 193.251 365.041,193.788 365.200,194.753 365.200 C 195.633 365.200,196.464 365.380,196.600 365.600 C 196.736 365.820,197.276 366.000,197.800 366.000 C 198.324 366.000,198.864 366.180,199.000 366.400 C 199.322 366.922,202.800 366.922,202.800 366.400 C 202.800 366.180,203.531 366.000,204.424 366.000 C 205.404 366.000,205.949 365.842,205.800 365.600 C 205.653 365.362,206.121 365.200,206.953 365.200 C 207.723 365.200,208.464 365.020,208.600 364.800 C 208.736 364.580,209.456 364.400,210.200 364.400 C 210.944 364.400,211.664 364.220,211.800 364.000 C 211.936 363.780,212.656 363.600,213.400 363.600 C 214.144 363.600,214.864 363.420,215.000 363.200 C 215.136 362.980,215.777 362.800,216.424 362.800 C 217.071 362.800,217.600 362.620,217.600 362.400 C 217.600 362.180,218.331 362.000,219.224 362.000 C 220.204 362.000,220.749 361.842,220.600 361.600 C 220.451 361.358,220.996 361.200,221.976 361.200 C 222.869 361.200,223.600 361.020,223.600 360.800 C 223.600 360.580,224.320 360.400,225.200 360.400 C 226.080 360.400,226.800 360.220,226.800 360.000 C 226.800 359.780,227.520 359.600,228.400 359.600 C 229.280 359.600,230.000 359.443,230.000 359.252 C 230.000 359.060,231.123 358.776,232.496 358.621 C 233.869 358.466,235.179 358.183,235.408 357.993 C 235.911 357.576,237.599 357.169,239.900 356.911 C 240.835 356.805,241.600 356.558,241.600 356.360 C 241.600 356.162,242.320 356.000,243.200 356.000 C 244.080 356.000,244.800 355.820,244.800 355.600 C 244.800 355.380,245.329 355.200,245.976 355.200 C 246.623 355.200,247.264 355.020,247.400 354.800 C 247.536 354.580,248.267 354.400,249.024 354.400 C 249.781 354.400,250.400 354.220,250.400 354.000 C 250.400 353.780,251.120 353.600,252.000 353.600 C 252.880 353.600,253.600 353.420,253.600 353.200 C 253.600 352.980,254.230 352.800,255.000 352.800 C 255.770 352.800,256.400 352.620,256.400 352.400 C 256.400 352.180,257.105 352.000,257.967 352.000 C 258.828 352.000,259.593 351.828,259.667 351.618 C 259.740 351.407,260.475 351.190,261.300 351.136 C 262.125 351.081,262.800 350.893,262.800 350.718 C 262.800 350.543,263.520 350.400,264.400 350.400 C 265.280 350.400,266.000 350.220,266.000 350.000 C 266.000 349.780,266.641 349.600,267.424 349.600 C 268.271 349.600,268.747 349.438,268.600 349.200 C 268.449 348.955,269.070 348.800,270.200 348.800 C 271.330 348.800,271.951 348.645,271.800 348.400 C 271.651 348.158,272.196 348.000,273.176 348.000 C 274.069 348.000,274.800 347.820,274.800 347.600 C 274.800 347.380,275.430 347.200,276.200 347.200 C 276.970 347.200,277.600 347.020,277.600 346.800 C 277.600 346.580,278.320 346.400,279.200 346.400 C 280.080 346.400,280.800 346.220,280.800 346.000 C 280.800 345.780,281.415 345.600,282.167 345.600 C 282.918 345.600,283.593 345.429,283.667 345.220 C 283.740 345.011,284.554 344.797,285.476 344.743 C 286.398 344.690,287.062 344.501,286.953 344.323 C 286.843 344.145,287.383 344.000,288.153 344.000 C 288.923 344.000,289.664 343.820,289.800 343.600 C 289.936 343.380,290.577 343.200,291.224 343.200 C 291.871 343.200,292.400 343.020,292.400 342.800 C 292.400 342.580,293.120 342.400,294.000 342.400 C 294.880 342.400,295.600 342.256,295.600 342.079 C 295.600 341.903,296.905 341.560,298.500 341.317 C 300.095 341.074,302.210 340.665,303.200 340.408 C 304.190 340.152,305.587 339.845,306.304 339.727 C 307.021 339.608,307.706 339.351,307.827 339.156 C 307.948 338.960,308.577 338.800,309.224 338.800 C 309.871 338.800,310.400 338.620,310.400 338.400 C 310.400 338.180,311.120 338.000,312.000 338.000 C 312.880 338.000,313.600 337.820,313.600 337.600 C 313.600 337.380,314.185 337.194,314.900 337.187 C 317.100 337.166,317.600 336.471,317.600 333.432 C 317.600 331.748,317.749 330.845,318.000 331.000 C 318.257 331.159,318.400 329.679,318.400 326.847 C 318.400 324.427,318.560 322.348,318.756 322.227 C 318.952 322.106,319.138 320.163,319.170 317.910 C 319.201 315.657,319.401 313.639,319.614 313.426 C 319.826 313.214,320.000 311.198,320.000 308.946 C 320.000 306.694,320.171 304.402,320.380 303.853 C 320.589 303.303,320.791 301.041,320.829 298.827 C 320.867 296.612,321.035 294.800,321.203 294.800 C 321.370 294.800,321.535 292.970,321.570 290.734 C 321.605 288.498,321.762 286.473,321.917 286.234 C 322.198 285.803,322.641 280.284,323.011 272.600 C 323.117 270.400,323.318 268.330,323.458 268.000 C 323.598 267.670,323.785 265.600,323.875 263.400 C 323.964 261.200,324.199 258.860,324.397 258.200 C 324.595 257.540,324.882 253.350,325.034 248.889 C 325.186 244.429,325.466 240.683,325.655 240.566 C 325.845 240.449,326.000 238.383,326.000 235.976 C 326.000 233.325,326.158 231.600,326.400 231.600 C 326.645 231.600,326.802 229.696,326.806 226.700 C 326.810 223.389,326.938 221.995,327.200 222.400 C 327.463 222.806,327.590 221.491,327.594 218.324 C 327.597 215.644,327.771 213.542,328.000 213.400 C 328.225 213.261,328.400 211.329,328.400 208.976 C 328.400 206.679,328.560 204.800,328.755 204.800 C 328.950 204.800,329.138 202.685,329.173 200.100 C 329.208 197.515,329.408 195.340,329.618 195.267 C 329.831 195.193,330.000 193.107,330.000 190.567 C 330.000 187.991,330.164 186.000,330.375 186.000 C 330.581 186.000,330.853 183.975,330.978 181.500 C 331.103 179.025,331.305 174.971,331.427 172.491 C 331.558 169.838,331.803 168.078,332.024 168.215 C 332.251 168.355,332.400 166.529,332.400 163.624 C 332.400 160.675,332.555 158.800,332.800 158.800 C 333.042 158.800,333.200 157.075,333.200 154.424 C 333.200 151.937,333.373 149.940,333.600 149.800 C 333.827 149.660,334.000 147.663,334.000 145.176 C 334.000 142.720,334.165 140.800,334.375 140.800 C 334.581 140.800,334.851 138.820,334.975 136.400 C 335.099 133.980,335.302 129.978,335.427 127.507 C 335.551 125.036,335.813 122.916,336.007 122.796 C 336.202 122.675,336.390 120.377,336.424 117.688 C 336.459 115.000,336.636 112.800,336.818 112.800 C 337.000 112.800,337.237 110.955,337.346 108.700 C 337.587 103.685,337.944 98.739,338.219 96.600 C 338.516 94.293,339.162 86.454,339.438 81.804 C 339.568 79.606,339.856 77.469,340.077 77.056 C 340.394 76.464,340.365 76.373,339.940 76.629 C 339.517 76.883,339.498 76.828,339.852 76.377 C 340.101 76.060,340.428 73.730,340.578 71.200 C 340.729 68.670,340.922 65.880,341.008 65.000 C 341.094 64.120,341.291 60.475,341.445 56.900 C 341.599 53.325,341.889 50.400,342.089 50.400 C 342.289 50.400,342.396 49.905,342.327 49.300 L 342.200 48.200 201.100 48.099 C 75.860 48.010,59.994 48.066,59.950 48.599 M319.371 75.400 C 319.354 76.280,319.118 79.700,318.845 83.000 C 318.373 88.699,318.191 90.810,317.239 101.600 C 317.015 104.130,316.633 108.540,316.389 111.400 C 316.146 114.260,315.779 118.490,315.574 120.800 C 315.370 123.110,315.019 127.160,314.794 129.800 C 313.816 141.306,313.345 146.767,312.398 157.600 C 312.158 160.350,311.794 164.580,311.591 167.000 C 310.636 178.342,309.721 189.026,309.175 195.200 C 308.970 197.510,308.625 201.560,308.406 204.200 C 308.188 206.840,307.834 210.980,307.620 213.400 C 307.405 215.820,306.959 221.040,306.627 225.000 C 306.295 228.960,305.742 235.350,305.397 239.200 C 304.836 245.468,304.524 249.119,303.191 265.000 C 302.988 267.420,302.632 271.560,302.400 274.200 C 302.168 276.840,301.796 281.160,301.572 283.800 C 301.348 286.440,300.988 290.580,300.772 293.000 C 300.239 298.956,299.606 306.577,299.252 311.301 C 298.910 315.854,298.822 315.977,295.287 316.848 C 291.291 317.833,267.751 323.954,258.400 326.439 C 257.630 326.644,256.280 326.977,255.400 327.180 C 254.520 327.383,253.080 327.752,252.200 328.001 C 251.320 328.250,249.970 328.607,249.200 328.795 C 248.430 328.983,246.360 329.525,244.600 330.000 C 242.840 330.475,240.770 331.014,240.000 331.198 C 239.230 331.383,236.530 332.075,234.000 332.738 C 231.470 333.400,226.970 334.569,224.000 335.336 C 221.030 336.102,217.250 337.091,215.600 337.533 C 205.782 340.163,201.123 341.256,200.597 341.054 C 200.081 340.856,200.000 338.505,200.000 323.655 C 200.000 304.526,200.273 306.286,197.200 305.576 C 196.430 305.399,195.080 305.049,194.200 304.800 C 192.309 304.264,190.401 303.776,188.200 303.265 C 187.320 303.060,184.080 302.229,181.000 301.416 C 177.920 300.604,172.610 299.219,169.200 298.338 C 165.790 297.457,161.650 296.376,160.000 295.936 C 158.350 295.497,156.370 294.985,155.600 294.800 C 154.830 294.615,152.760 294.070,151.000 293.589 C 149.240 293.109,147.213 292.625,146.496 292.514 C 145.779 292.402,145.094 292.151,144.973 291.956 C 144.852 291.760,144.144 291.600,143.400 291.600 C 142.656 291.600,141.936 291.420,141.800 291.200 C 141.664 290.980,141.171 290.800,140.705 290.800 C 140.238 290.800,139.304 290.632,138.628 290.427 C 137.953 290.222,136.680 289.877,135.800 289.660 C 132.736 288.905,130.595 288.315,129.757 287.993 C 128.710 287.591,128.432 286.397,127.941 280.200 C 127.203 270.893,126.840 266.551,126.402 261.800 C 125.704 254.240,124.935 245.145,124.049 234.000 C 123.883 231.910,123.815 230.065,123.897 229.900 C 123.980 229.735,132.203 229.600,142.171 229.600 L 160.295 229.600 160.569 231.300 C 160.830 232.914,160.979 234.113,161.977 242.600 C 162.209 244.580,162.580 247.685,162.800 249.500 C 163.020 251.315,163.355 254.217,163.545 255.948 C 163.956 259.706,164.015 259.822,165.690 260.143 C 166.411 260.281,167.810 260.585,168.800 260.819 C 169.790 261.053,171.365 261.414,172.300 261.622 C 173.235 261.830,174.810 262.180,175.800 262.400 C 176.790 262.620,178.365 262.970,179.300 263.178 C 180.235 263.386,181.720 263.728,182.600 263.938 C 183.480 264.148,185.190 264.536,186.400 264.800 C 189.700 265.521,191.046 265.823,195.096 266.752 C 197.128 267.218,199.063 267.600,199.396 267.600 C 199.929 267.600,200.000 264.468,200.000 241.065 L 200.000 214.530 182.534 214.265 C 172.928 214.119,155.565 214.000,143.948 214.000 C 123.889 214.000,122.808 213.963,122.436 213.268 C 122.076 212.594,121.820 210.083,120.799 197.200 C 120.599 194.670,120.245 190.530,120.013 188.000 C 119.781 185.470,119.323 180.070,118.995 176.000 C 118.667 171.930,118.218 166.620,117.997 164.200 C 117.539 159.193,116.953 152.401,116.375 145.400 C 116.157 142.760,115.803 138.575,115.589 136.100 C 115.375 133.625,115.028 129.575,114.817 127.100 C 114.606 124.625,114.225 120.260,113.970 117.400 C 113.715 114.540,113.483 111.390,113.453 110.400 L 113.400 108.600 156.700 108.498 L 200.000 108.396 200.000 91.265 C 200.000 81.843,200.121 74.013,200.268 73.865 C 200.415 73.718,227.280 73.643,259.968 73.699 L 319.400 73.800 319.371 75.400 M151.118 143.647 C 151.036 143.892,151.094 145.467,151.246 147.147 C 151.398 148.826,151.728 153.260,151.979 157.000 C 152.230 160.740,152.607 165.240,152.818 167.000 C 153.029 168.760,153.203 171.370,153.206 172.800 C 153.209 174.230,153.319 175.805,153.452 176.300 L 153.693 177.200 176.847 177.200 L 200.000 177.200 200.000 160.200 L 200.000 143.200 175.633 143.200 C 158.049 143.200,151.225 143.324,151.118 143.647 " stroke="none" fill="#d43c2c" fill-rule="evenodd"></path><path id="path2" d="M200.268 73.865 C 200.121 74.013,200.000 81.843,200.000 91.267 L 200.000 108.400 244.176 108.400 C 268.535 108.400,288.449 108.555,288.566 108.745 C 288.768 109.073,288.415 114.826,287.591 124.600 C 286.694 135.245,286.418 138.353,286.162 140.700 L 285.889 143.200 242.944 143.200 L 200.000 143.200 200.000 160.200 L 200.000 177.200 241.186 177.200 C 286.179 177.200,283.764 177.080,283.017 179.271 C 282.917 179.562,282.640 182.140,282.400 185.000 C 282.160 187.860,281.790 192.180,281.577 194.600 C 281.365 197.020,281.005 201.250,280.777 204.000 C 280.550 206.750,280.191 210.980,279.980 213.400 C 279.769 215.820,279.410 220.050,279.182 222.800 C 278.955 225.550,278.599 229.690,278.392 232.000 C 277.974 236.670,277.393 243.347,276.774 250.600 C 276.548 253.240,276.189 257.380,275.975 259.800 C 275.761 262.220,275.418 266.180,275.213 268.600 C 273.556 288.126,273.646 287.447,272.655 287.926 C 272.185 288.154,271.350 288.428,270.800 288.537 C 270.250 288.645,268.360 289.123,266.600 289.599 C 264.840 290.074,262.725 290.629,261.900 290.832 C 261.075 291.034,259.725 291.372,258.900 291.582 C 258.075 291.792,256.860 292.076,256.200 292.212 C 255.540 292.349,254.640 292.613,254.200 292.800 C 253.760 292.987,252.905 293.243,252.300 293.370 C 251.695 293.496,250.705 293.704,250.100 293.830 C 249.495 293.957,248.640 294.213,248.200 294.400 C 247.760 294.587,246.860 294.851,246.200 294.988 C 244.631 295.312,242.905 295.747,239.000 296.800 C 237.240 297.275,235.170 297.810,234.400 297.990 C 233.002 298.316,223.590 300.762,216.400 302.668 C 214.310 303.222,211.925 303.838,211.100 304.038 C 207.971 304.793,206.550 305.161,205.000 305.618 C 204.120 305.876,202.635 306.176,201.700 306.284 L 200.000 306.481 200.000 323.653 C 200.000 338.505,200.081 340.856,200.597 341.054 C 201.123 341.256,205.782 340.163,215.600 337.533 C 217.250 337.091,221.030 336.102,224.000 335.336 C 226.970 334.569,231.470 333.400,234.000 332.738 C 236.530 332.075,239.230 331.383,240.000 331.198 C 240.770 331.014,242.840 330.475,244.600 330.000 C 246.360 329.525,248.430 328.983,249.200 328.795 C 249.970 328.607,251.320 328.250,252.200 328.001 C 253.080 327.752,254.520 327.383,255.400 327.180 C 256.280 326.977,257.630 326.644,258.400 326.439 C 267.751 323.954,291.291 317.833,295.287 316.848 C 298.822 315.977,298.910 315.854,299.252 311.301 C 299.606 306.577,300.239 298.956,300.772 293.000 C 300.988 290.580,301.348 286.440,301.572 283.800 C 301.796 281.160,302.168 276.840,302.400 274.200 C 302.632 271.560,302.988 267.420,303.191 265.000 C 304.524 249.119,304.836 245.468,305.397 239.200 C 305.742 235.350,306.295 228.960,306.627 225.000 C 306.959 221.040,307.405 215.820,307.620 213.400 C 307.834 210.980,308.188 206.840,308.406 204.200 C 308.625 201.560,308.970 197.510,309.175 195.200 C 309.721 189.026,310.636 178.342,311.591 167.000 C 311.794 164.580,312.158 160.350,312.398 157.600 C 313.345 146.767,313.816 141.306,314.794 129.800 C 315.019 127.160,315.370 123.110,315.574 120.800 C 315.779 118.490,316.146 114.260,316.389 111.400 C 316.633 108.540,317.015 104.130,317.239 101.600 C 318.191 90.810,318.373 88.699,318.845 83.000 C 319.118 79.700,319.354 76.280,319.371 75.400 L 319.400 73.800 259.968 73.699 C 227.280 73.643,200.415 73.718,200.268 73.865 M177.505 214.283 C 178.002 214.379,178.722 214.375,179.105 214.275 C 179.487 214.175,179.080 214.096,178.200 214.101 C 177.320 214.105,177.007 214.187,177.505 214.283 M199.906 241.204 C 199.823 262.231,199.906 267.968,200.290 267.821 C 200.560 267.717,202.720 267.244,205.090 266.769 C 209.748 265.836,211.851 265.404,214.500 264.835 C 215.435 264.635,217.190 264.267,218.400 264.018 C 219.610 263.769,221.410 263.385,222.400 263.164 C 223.390 262.944,225.010 262.600,226.000 262.400 C 226.990 262.200,228.700 261.840,229.800 261.600 C 232.965 260.909,235.681 260.377,237.241 260.143 L 238.682 259.927 239.134 256.664 C 239.382 254.869,239.685 252.500,239.808 251.400 C 239.930 250.300,240.204 248.005,240.415 246.300 C 240.875 242.596,241.443 237.911,242.026 233.000 C 242.262 231.020,242.612 228.140,242.805 226.600 C 242.998 225.060,243.336 222.180,243.556 220.200 C 243.777 218.220,244.078 216.105,244.225 215.500 L 244.493 214.400 222.252 214.400 L 200.011 214.400 199.906 241.204 M75.301 231.000 C 75.305 231.880,75.387 232.193,75.483 231.695 C 75.579 231.198,75.575 230.478,75.475 230.095 C 75.375 229.713,75.296 230.120,75.301 231.000 M76.000 241.800 C 76.000 242.350,76.155 242.800,76.345 242.800 C 76.534 242.800,76.603 242.350,76.498 241.800 C 76.393 241.250,76.238 240.800,76.153 240.800 C 76.069 240.800,76.000 241.250,76.000 241.800 " stroke="none" fill="#ec3c34" fill-rule="evenodd"></path><path id="path3" d="M113.468 108.666 C 113.119 109.015,113.206 111.474,113.621 113.000 C 113.830 113.767,113.868 113.226,113.727 111.500 L 113.507 108.800 200.929 108.800 L 288.352 108.800 288.518 110.203 L 288.684 111.607 288.642 110.103 L 288.600 108.600 201.168 108.499 C 153.080 108.444,113.615 108.519,113.468 108.666 M287.864 117.750 C 287.701 119.263,287.650 120.583,287.751 120.684 C 288.014 120.947,288.510 116.650,288.319 115.753 C 288.231 115.339,288.026 116.238,287.864 117.750 M114.109 119.200 C 114.109 120.190,114.187 120.595,114.282 120.100 C 114.378 119.605,114.378 118.795,114.282 118.300 C 114.187 117.805,114.109 118.210,114.109 119.200 M114.493 122.400 C 114.493 123.170,114.575 123.485,114.676 123.100 C 114.776 122.715,114.776 122.085,114.676 121.700 C 114.575 121.315,114.493 121.630,114.493 122.400 M287.013 127.413 C 286.857 128.871,286.820 130.153,286.930 130.263 C 287.040 130.373,287.257 129.271,287.413 127.813 C 287.569 126.356,287.607 125.074,287.497 124.964 C 287.387 124.854,287.169 125.956,287.013 127.413 M114.823 128.433 C 114.836 129.185,115.005 130.520,115.198 131.400 C 115.469 132.630,115.498 132.352,115.326 130.200 C 115.087 127.220,114.785 126.158,114.823 128.433 M286.213 136.613 C 286.057 138.071,286.020 139.353,286.130 139.463 C 286.240 139.573,286.457 138.471,286.613 137.013 C 286.769 135.556,286.807 134.274,286.697 134.164 C 286.587 134.054,286.369 135.156,286.213 136.613 M115.673 137.600 C 115.658 138.370,115.795 139.720,115.977 140.600 C 116.436 142.821,116.474 140.550,116.020 138.000 C 115.722 136.322,115.698 136.295,115.673 137.600 M150.914 146.600 C 150.917 147.700,150.995 148.103,151.087 147.495 C 151.179 146.886,151.177 145.986,151.082 145.495 C 150.987 145.003,150.911 145.500,150.914 146.600 M116.501 147.000 C 116.505 147.880,116.587 148.193,116.683 147.695 C 116.779 147.198,116.775 146.478,116.675 146.095 C 116.575 145.713,116.496 146.120,116.501 147.000 M116.914 150.600 C 116.917 151.700,116.995 152.103,117.087 151.495 C 117.179 150.886,117.177 149.986,117.082 149.495 C 116.987 149.003,116.911 149.500,116.914 150.600 M151.309 150.400 C 151.309 151.390,151.387 151.795,151.482 151.300 C 151.578 150.805,151.578 149.995,151.482 149.500 C 151.387 149.005,151.309 149.410,151.309 150.400 M151.720 156.400 C 151.720 157.610,151.795 158.105,151.887 157.500 C 151.978 156.895,151.978 155.905,151.887 155.300 C 151.795 154.695,151.720 155.190,151.720 156.400 M117.477 158.200 C 117.598 159.960,117.765 161.475,117.849 161.567 C 118.119 161.864,117.950 158.650,117.599 156.800 C 117.342 155.447,117.312 155.794,117.477 158.200 M152.114 160.600 C 152.117 161.700,152.195 162.103,152.287 161.495 C 152.379 160.886,152.377 159.986,152.282 159.495 C 152.187 159.003,152.111 159.500,152.114 160.600 M118.101 165.400 C 118.105 166.280,118.187 166.593,118.283 166.095 C 118.379 165.598,118.375 164.878,118.275 164.495 C 118.175 164.113,118.096 164.520,118.101 165.400 M152.677 169.000 C 152.798 170.760,152.965 172.275,153.049 172.367 C 153.319 172.664,153.150 169.450,152.799 167.600 C 152.542 166.247,152.512 166.594,152.677 169.000 M118.514 169.000 C 118.517 170.100,118.595 170.503,118.687 169.895 C 118.779 169.286,118.777 168.386,118.682 167.895 C 118.587 167.403,118.511 167.900,118.514 169.000 M118.893 174.800 C 118.893 175.570,118.975 175.885,119.076 175.500 C 119.176 175.115,119.176 174.485,119.076 174.100 C 118.975 173.715,118.893 174.030,118.893 174.800 M153.328 176.600 C 153.411 177.396,153.740 177.400,217.605 177.495 L 281.800 177.590 282.500 178.439 C 283.280 179.385,283.419 179.157,282.786 177.974 C 282.379 177.214,281.233 177.200,218.015 177.200 C 157.069 177.200,153.648 177.163,153.452 176.500 C 153.292 175.956,153.264 175.978,153.328 176.600 M119.324 179.000 C 119.326 180.320,119.401 180.812,119.490 180.093 C 119.579 179.374,119.577 178.294,119.486 177.693 C 119.395 177.092,119.322 177.680,119.324 179.000 M282.501 181.400 C 282.505 182.280,282.587 182.593,282.683 182.095 C 282.779 181.598,282.775 180.878,282.675 180.495 C 282.575 180.113,282.496 180.520,282.501 181.400 M119.693 184.000 C 119.693 184.770,119.775 185.085,119.876 184.700 C 119.976 184.315,119.976 183.685,119.876 183.300 C 119.775 182.915,119.693 183.230,119.693 184.000 M282.128 185.600 C 282.128 187.030,282.201 187.615,282.289 186.900 C 282.378 186.185,282.378 185.015,282.289 184.300 C 282.201 183.585,282.128 184.170,282.128 185.600 M120.128 188.000 C 120.128 189.430,120.201 190.015,120.289 189.300 C 120.378 188.585,120.378 187.415,120.289 186.700 C 120.201 185.985,120.128 186.570,120.128 188.000 M281.693 190.400 C 281.693 191.170,281.775 191.485,281.876 191.100 C 281.976 190.715,281.976 190.085,281.876 189.700 C 281.775 189.315,281.693 189.630,281.693 190.400 M120.501 193.000 C 120.505 193.880,120.587 194.193,120.683 193.695 C 120.779 193.198,120.775 192.478,120.675 192.095 C 120.575 191.713,120.496 192.120,120.501 193.000 M281.328 194.800 C 281.328 196.230,281.401 196.815,281.489 196.100 C 281.578 195.385,281.578 194.215,281.489 193.500 C 281.401 192.785,281.328 193.370,281.328 194.800 M120.928 198.000 C 120.928 199.430,121.001 200.015,121.089 199.300 C 121.178 198.585,121.178 197.415,121.089 196.700 C 121.001 195.985,120.928 196.570,120.928 198.000 M280.893 199.600 C 280.893 200.370,280.975 200.685,281.076 200.300 C 281.176 199.915,281.176 199.285,281.076 198.900 C 280.975 198.515,280.893 198.830,280.893 199.600 M121.293 202.400 C 121.293 203.170,121.375 203.485,121.476 203.100 C 121.576 202.715,121.576 202.085,121.476 201.700 C 121.375 201.315,121.293 201.630,121.293 202.400 M280.531 204.600 C 280.533 206.140,280.605 206.721,280.692 205.891 C 280.779 205.061,280.777 203.801,280.689 203.091 C 280.600 202.381,280.529 203.060,280.531 204.600 M121.728 207.200 C 121.728 208.630,121.801 209.215,121.889 208.500 C 121.978 207.785,121.978 206.615,121.889 205.900 C 121.801 205.185,121.728 205.770,121.728 207.200 M280.093 208.800 C 280.093 209.570,280.175 209.885,280.276 209.500 C 280.376 209.115,280.376 208.485,280.276 208.100 C 280.175 207.715,280.093 208.030,280.093 208.800 M122.093 211.600 C 122.093 212.370,122.175 212.685,122.276 212.300 C 122.376 211.915,122.376 211.285,122.276 210.900 C 122.175 210.515,122.093 210.830,122.093 211.600 M279.731 213.800 C 279.733 215.340,279.805 215.921,279.892 215.091 C 279.979 214.261,279.977 213.001,279.889 212.291 C 279.800 211.581,279.729 212.260,279.731 213.800 M122.743 213.704 C 122.910 213.871,132.577 213.960,144.224 213.903 L 165.400 213.800 143.920 213.600 C 132.106 213.490,122.576 213.537,122.743 213.704 M195.700 214.300 C 204.665 214.360,219.335 214.360,228.300 214.300 C 237.265 214.240,229.930 214.191,212.000 214.191 C 194.070 214.191,186.735 214.240,195.700 214.300 M243.876 216.810 C 243.730 217.355,243.628 218.340,243.649 219.000 C 243.680 219.957,243.759 219.836,244.042 218.400 C 244.429 216.433,244.302 215.217,243.876 216.810 M279.293 218.000 C 279.293 218.770,279.375 219.085,279.476 218.700 C 279.576 218.315,279.576 217.685,279.476 217.300 C 279.375 216.915,279.293 217.230,279.293 218.000 M278.876 222.844 C 278.834 223.858,278.713 225.568,278.606 226.644 L 278.412 228.600 278.822 227.000 C 279.047 226.120,279.168 224.410,279.091 223.200 C 278.955 221.056,278.949 221.047,278.876 222.844 M243.056 223.684 C 242.921 224.188,242.830 225.230,242.852 226.000 C 242.886 227.134,242.962 226.989,243.252 225.239 C 243.620 223.025,243.496 222.043,243.056 223.684 M242.256 230.084 C 242.121 230.588,242.030 231.630,242.052 232.400 C 242.086 233.534,242.162 233.389,242.452 231.639 C 242.820 229.425,242.696 228.443,242.256 230.084 M278.072 232.044 C 278.032 233.058,277.915 234.768,277.811 235.844 L 277.622 237.800 278.030 235.839 C 278.255 234.761,278.373 233.051,278.292 232.039 L 278.144 230.200 278.072 232.044 M160.694 234.400 C 160.814 235.830,160.977 237.075,161.056 237.167 C 161.335 237.489,161.116 233.788,160.798 232.800 C 160.605 232.200,160.563 232.840,160.694 234.400 M124.128 234.800 C 124.128 236.230,124.201 236.815,124.289 236.100 C 124.378 235.385,124.378 234.215,124.289 233.500 C 124.201 232.785,124.128 233.370,124.128 234.800 M241.314 239.400 C 241.317 240.500,241.395 240.903,241.487 240.295 C 241.579 239.686,241.577 238.786,241.482 238.295 C 241.387 237.803,241.311 238.300,241.314 239.400 M277.272 241.244 C 277.232 242.258,277.115 243.968,277.011 245.044 L 276.822 247.000 277.230 245.039 C 277.455 243.961,277.573 242.251,277.492 241.239 L 277.344 239.400 277.272 241.244 M161.709 242.000 C 161.709 242.990,161.787 243.395,161.882 242.900 C 161.978 242.405,161.978 241.595,161.882 241.100 C 161.787 240.605,161.709 241.010,161.709 242.000 M240.653 243.636 C 240.514 244.331,240.423 245.553,240.451 246.350 C 240.485 247.330,240.610 246.963,240.835 245.218 C 241.189 242.483,241.077 241.513,240.653 243.636 M124.847 244.833 C 124.873 246.025,125.038 247.540,125.213 248.200 C 125.401 248.910,125.441 248.094,125.312 246.200 C 125.057 242.492,124.778 241.670,124.847 244.833 M162.514 249.000 C 162.517 250.100,162.595 250.503,162.687 249.895 C 162.779 249.286,162.777 248.386,162.682 247.895 C 162.587 247.403,162.511 247.900,162.514 249.000 M239.869 249.956 C 239.721 250.695,239.622 251.953,239.649 252.750 C 239.686 253.849,239.782 253.618,240.048 251.800 C 240.431 249.171,240.299 247.805,239.869 249.956 M276.472 250.844 C 276.432 251.638,276.313 253.168,276.206 254.244 L 276.012 256.200 276.422 254.600 C 276.648 253.720,276.768 252.190,276.688 251.200 C 276.561 249.613,276.536 249.571,276.472 250.844 M125.647 253.833 C 125.673 254.915,125.835 256.340,126.006 257.000 C 126.188 257.703,126.228 256.958,126.103 255.200 C 125.857 251.759,125.577 250.918,125.647 253.833 M163.314 255.800 C 163.317 256.900,163.395 257.303,163.487 256.695 C 163.579 256.086,163.577 255.186,163.482 254.695 C 163.387 254.203,163.311 254.700,163.314 255.800 M238.893 258.800 C 238.893 259.570,238.975 259.885,239.076 259.500 C 239.176 259.115,239.176 258.485,239.076 258.100 C 238.975 257.715,238.893 258.030,238.893 258.800 M275.668 260.200 C 275.626 261.080,275.504 262.520,275.397 263.400 L 275.203 265.000 275.622 263.665 C 275.852 262.931,275.974 261.491,275.893 260.465 C 275.746 258.619,275.743 258.617,275.668 260.200 M165.600 260.400 C 166.968 260.838,168.019 260.838,167.000 260.400 C 166.560 260.211,165.840 260.062,165.400 260.068 C 164.757 260.077,164.796 260.143,165.600 260.400 M235.600 260.406 C 235.178 260.682,235.415 260.723,236.400 260.542 C 238.125 260.225,238.451 259.998,237.167 260.006 C 236.635 260.009,235.930 260.189,235.600 260.406 M231.600 261.200 C 230.805 261.714,231.804 261.714,233.000 261.200 L 233.800 260.856 233.000 260.834 C 232.560 260.822,231.930 260.987,231.600 261.200 M126.447 263.033 C 126.473 264.115,126.635 265.540,126.806 266.200 C 126.988 266.903,127.028 266.158,126.903 264.400 C 126.657 260.959,126.377 260.118,126.447 263.033 M172.033 261.744 C 172.125 261.823,172.740 262.008,173.400 262.156 C 174.276 262.352,174.438 262.315,174.000 262.018 C 173.460 261.653,171.632 261.398,172.033 261.744 M228.000 262.000 C 227.205 262.514,228.204 262.514,229.400 262.000 L 230.200 261.656 229.400 261.634 C 228.960 261.622,228.330 261.787,228.000 262.000 M224.000 262.800 C 223.205 263.314,224.204 263.314,225.400 262.800 L 226.200 262.456 225.400 262.434 C 224.960 262.422,224.330 262.587,224.000 262.800 M179.800 263.600 C 180.996 264.114,181.995 264.114,181.200 263.600 C 180.870 263.387,180.240 263.222,179.800 263.234 L 179.000 263.256 179.800 263.600 M220.400 263.600 C 219.605 264.114,220.604 264.114,221.800 263.600 L 222.600 263.256 221.800 263.234 C 221.360 263.222,220.730 263.387,220.400 263.600 M183.400 264.400 C 183.840 264.589,184.470 264.744,184.800 264.744 C 185.178 264.744,185.104 264.617,184.600 264.400 C 184.160 264.211,183.530 264.056,183.200 264.056 C 182.822 264.056,182.896 264.183,183.400 264.400 M216.600 264.400 C 215.581 264.838,216.632 264.838,218.000 264.400 C 218.804 264.143,218.843 264.077,218.200 264.068 C 217.760 264.062,217.040 264.211,216.600 264.400 M187.000 265.200 C 187.440 265.389,188.070 265.544,188.400 265.544 C 188.778 265.544,188.704 265.417,188.200 265.200 C 187.760 265.011,187.130 264.856,186.800 264.856 C 186.422 264.856,186.496 264.983,187.000 265.200 M212.800 265.200 C 212.005 265.714,213.004 265.714,214.200 265.200 L 215.000 264.856 214.200 264.834 C 213.760 264.822,213.130 264.987,212.800 265.200 M209.000 266.000 C 208.496 266.217,208.422 266.344,208.800 266.344 C 209.130 266.344,209.760 266.189,210.200 266.000 C 210.704 265.783,210.778 265.656,210.400 265.656 C 210.070 265.656,209.440 265.811,209.000 266.000 M197.400 267.600 C 197.840 267.789,198.560 267.938,199.000 267.932 C 199.643 267.923,199.604 267.857,198.800 267.600 C 197.432 267.162,196.381 267.162,197.400 267.600 M201.200 267.600 C 200.396 267.857,200.357 267.923,201.000 267.932 C 201.440 267.938,202.160 267.789,202.600 267.600 C 203.619 267.162,202.568 267.162,201.200 267.600 M274.874 269.044 C 274.833 269.948,274.713 271.568,274.606 272.644 L 274.412 274.600 274.822 273.000 C 275.048 272.120,275.168 270.500,275.090 269.400 C 274.957 267.533,274.943 267.509,274.874 269.044 M127.247 272.633 C 127.273 273.715,127.440 275.140,127.617 275.800 C 127.814 276.532,127.853 275.831,127.718 274.000 C 127.463 270.555,127.177 269.725,127.247 272.633 M273.880 280.358 C 273.717 281.986,273.662 283.396,273.759 283.492 C 274.023 283.757,274.496 279.484,274.325 278.371 C 274.243 277.837,274.043 278.731,273.880 280.358 M128.047 281.833 C 128.073 282.915,128.240 284.340,128.417 285.000 C 128.614 285.732,128.653 285.031,128.518 283.200 C 128.263 279.755,127.977 278.925,128.047 281.833 M129.376 287.778 C 129.804 288.120,130.434 288.386,130.776 288.368 C 131.315 288.341,131.318 288.307,130.800 288.114 C 130.470 287.992,129.840 287.726,129.400 287.524 C 128.613 287.162,128.612 287.166,129.376 287.778 M135.600 289.582 C 135.930 289.805,136.545 289.991,136.967 289.994 C 137.990 290.002,137.671 289.773,136.200 289.444 C 135.324 289.248,135.162 289.285,135.600 289.582 M265.400 289.600 C 264.896 289.817,264.822 289.944,265.200 289.944 C 265.530 289.944,266.160 289.789,266.600 289.600 C 267.104 289.383,267.178 289.256,266.800 289.256 C 266.470 289.256,265.840 289.411,265.400 289.600 M262.400 290.400 C 261.867 290.745,261.867 290.788,262.400 290.788 C 262.730 290.788,263.270 290.613,263.600 290.400 C 264.133 290.055,264.133 290.012,263.600 290.012 C 263.270 290.012,262.730 290.187,262.400 290.400 M250.000 293.600 C 249.176 293.864,249.141 293.926,249.800 293.954 C 250.240 293.973,250.870 293.813,251.200 293.600 C 251.901 293.147,251.414 293.147,250.000 293.600 M154.000 294.382 C 154.330 294.605,154.945 294.791,155.367 294.794 C 156.390 294.802,156.071 294.573,154.600 294.244 C 153.724 294.048,153.562 294.085,154.000 294.382 M246.800 294.400 L 245.800 294.720 246.876 294.760 C 247.468 294.782,248.064 294.620,248.200 294.400 C 248.481 293.945,248.220 293.945,246.800 294.400 M157.200 295.182 C 157.530 295.405,158.145 295.591,158.567 295.594 C 159.590 295.602,159.271 295.373,157.800 295.044 C 156.924 294.848,156.762 294.885,157.200 295.182 M244.000 295.200 C 243.176 295.464,243.141 295.526,243.800 295.554 C 244.240 295.573,244.870 295.413,245.200 295.200 C 245.901 294.747,245.414 294.747,244.000 295.200 M240.800 296.000 C 239.976 296.264,239.941 296.326,240.600 296.354 C 241.040 296.373,241.670 296.213,242.000 296.000 C 242.701 295.547,242.214 295.547,240.800 296.000 M163.200 296.782 C 163.530 297.005,164.145 297.191,164.567 297.194 C 165.590 297.202,165.271 296.973,163.800 296.644 C 162.924 296.448,162.762 296.485,163.200 296.782 M234.800 297.600 C 233.976 297.864,233.941 297.926,234.600 297.954 C 235.040 297.973,235.670 297.813,236.000 297.600 C 236.701 297.147,236.214 297.147,234.800 297.600 M231.280 298.395 C 230.554 298.567,229.847 298.820,229.709 298.958 C 229.371 299.296,232.044 298.776,232.800 298.357 C 233.516 297.960,233.068 297.971,231.280 298.395 M173.233 299.344 C 173.325 299.423,173.940 299.608,174.600 299.756 C 175.476 299.952,175.638 299.915,175.200 299.618 C 174.660 299.253,172.832 298.998,173.233 299.344 M223.800 300.400 C 223.296 300.617,223.222 300.744,223.600 300.744 C 223.930 300.744,224.560 300.589,225.000 300.400 C 225.504 300.183,225.578 300.056,225.200 300.056 C 224.870 300.056,224.240 300.211,223.800 300.400 M180.200 301.200 C 180.640 301.389,181.270 301.544,181.600 301.544 C 181.978 301.544,181.904 301.417,181.400 301.200 C 180.960 301.011,180.330 300.856,180.000 300.856 C 179.622 300.856,179.696 300.983,180.200 301.200 M220.800 301.218 C 220.362 301.515,220.524 301.552,221.400 301.356 C 222.871 301.027,223.190 300.798,222.167 300.806 C 221.745 300.809,221.130 300.995,220.800 301.218 M183.400 302.000 C 183.840 302.189,184.470 302.344,184.800 302.344 C 185.178 302.344,185.104 302.217,184.600 302.000 C 184.160 301.811,183.530 301.656,183.200 301.656 C 182.822 301.656,182.896 301.783,183.400 302.000 M217.800 302.000 C 217.296 302.217,217.222 302.344,217.600 302.344 C 217.930 302.344,218.560 302.189,219.000 302.000 C 219.504 301.783,219.578 301.656,219.200 301.656 C 218.870 301.656,218.240 301.811,217.800 302.000 M214.600 302.800 C 214.096 303.017,214.022 303.144,214.400 303.144 C 214.730 303.144,215.360 302.989,215.800 302.800 C 216.304 302.583,216.378 302.456,216.000 302.456 C 215.670 302.456,215.040 302.611,214.600 302.800 M211.600 303.600 C 211.067 303.945,211.067 303.988,211.600 303.988 C 211.930 303.988,212.470 303.813,212.800 303.600 C 213.333 303.255,213.333 303.212,212.800 303.212 C 212.470 303.212,211.930 303.387,211.600 303.600 M208.400 304.400 C 207.867 304.745,207.867 304.788,208.400 304.788 C 208.730 304.788,209.270 304.613,209.600 304.400 C 210.133 304.055,210.133 304.012,209.600 304.012 C 209.270 304.012,208.730 304.187,208.400 304.400 M202.400 306.000 C 201.867 306.345,201.867 306.388,202.400 306.388 C 202.730 306.388,203.270 306.213,203.600 306.000 C 204.133 305.655,204.133 305.612,203.600 305.612 C 203.270 305.612,202.730 305.787,202.400 306.000 " stroke="none" fill="#eb8982" fill-rule="evenodd"></path><path id="path4" d="M113.647 110.300 C 113.693 111.753,113.703 111.762,113.951 110.600 L 114.208 109.400 201.304 109.400 C 249.207 109.400,288.400 109.265,288.400 109.100 C 288.400 108.935,249.070 108.800,201.000 108.800 L 113.600 108.800 113.647 110.300 M287.882 113.961 C 287.720 116.249,287.664 118.197,287.756 118.289 C 288.003 118.536,288.505 111.950,288.328 110.791 C 288.245 110.246,288.044 111.672,287.882 113.961 M114.131 115.000 C 114.133 116.540,114.205 117.121,114.292 116.291 C 114.379 115.461,114.377 114.201,114.289 113.491 C 114.200 112.781,114.129 113.460,114.131 115.000 M114.509 119.600 C 114.509 120.590,114.587 120.995,114.682 120.500 C 114.778 120.005,114.778 119.195,114.682 118.700 C 114.587 118.205,114.509 118.610,114.509 119.600 M287.073 123.760 C 286.915 125.718,286.863 127.396,286.956 127.489 C 287.203 127.736,287.712 121.863,287.522 120.962 C 287.433 120.543,287.231 121.802,287.073 123.760 M114.835 124.633 C 114.854 125.715,115.019 127.500,115.200 128.600 C 115.436 130.026,115.469 129.510,115.315 126.800 C 115.084 122.750,114.777 121.360,114.835 124.633 M286.269 132.749 C 286.101 134.810,286.045 136.579,286.145 136.678 C 286.405 136.939,286.907 131.160,286.726 129.985 C 286.643 129.443,286.437 130.687,286.269 132.749 M115.630 133.633 C 115.646 134.825,115.812 136.610,115.998 137.600 C 116.236 138.862,116.272 138.263,116.118 135.600 C 115.876 131.411,115.583 130.231,115.630 133.633 M285.724 140.600 C 285.726 141.920,285.801 142.412,285.890 141.693 C 285.979 140.974,285.977 139.894,285.886 139.293 C 285.795 138.692,285.722 139.280,285.724 140.600 M116.435 142.833 C 116.454 144.025,116.617 145.900,116.797 147.000 C 117.024 148.385,117.058 147.771,116.910 145.000 C 116.678 140.679,116.378 139.311,116.435 142.833 M150.556 143.371 C 150.435 143.685,150.416 144.360,150.514 144.871 C 150.649 145.579,150.704 145.491,150.746 144.501 L 150.800 143.202 218.100 143.100 L 285.400 142.998 218.087 142.899 C 160.083 142.814,150.745 142.879,150.556 143.371 M150.891 150.000 C 150.880 150.990,151.010 152.700,151.182 153.800 C 151.482 155.731,151.494 155.745,151.507 154.200 C 151.515 153.320,151.384 151.610,151.217 150.400 L 150.913 148.200 150.891 150.000 M117.280 153.000 C 117.268 153.880,117.403 155.410,117.580 156.400 L 117.900 158.200 117.920 156.600 C 117.932 155.720,117.797 154.190,117.620 153.200 L 117.300 151.400 117.280 153.000 M151.889 162.800 C 152.005 165.330,152.167 167.475,152.250 167.567 C 152.504 167.848,152.332 163.140,151.995 160.600 C 151.776 158.945,151.743 159.628,151.889 162.800 M118.088 161.800 C 118.078 162.680,118.210 164.300,118.382 165.400 C 118.684 167.339,118.694 167.351,118.712 165.800 C 118.722 164.920,118.590 163.300,118.418 162.200 C 118.116 160.261,118.106 160.249,118.088 161.800 M152.663 172.600 C 152.773 174.800,152.950 176.915,153.058 177.300 C 153.244 177.963,156.640 178.000,217.194 178.000 C 252.361 178.000,281.385 178.096,281.692 178.214 C 282.102 178.371,282.222 179.084,282.146 180.914 L 282.042 183.400 282.415 181.034 C 282.675 179.384,282.654 178.506,282.346 178.135 C 281.982 177.696,270.559 177.585,217.652 177.501 L 153.400 177.400 153.108 173.800 C 152.686 168.616,152.431 167.925,152.663 172.600 M118.885 171.600 C 118.877 172.370,119.010 173.900,119.182 175.000 C 119.485 176.948,119.494 176.959,119.517 175.400 C 119.530 174.520,119.397 172.990,119.220 172.000 C 118.925 170.342,118.899 170.311,118.885 171.600 M119.676 180.800 C 119.667 181.570,119.803 183.010,119.980 184.000 L 120.300 185.800 120.327 184.200 C 120.342 183.320,120.205 181.880,120.023 181.000 L 119.692 179.400 119.676 180.800 M281.395 188.511 C 281.243 189.927,281.194 191.426,281.284 191.842 C 281.375 192.259,281.590 191.192,281.762 189.470 C 281.933 187.749,281.983 186.250,281.872 186.139 C 281.761 186.028,281.546 187.095,281.395 188.511 M120.680 191.800 C 120.799 193.780,120.965 195.475,121.048 195.567 C 121.312 195.856,121.144 192.285,120.796 190.200 C 120.551 188.727,120.520 189.148,120.680 191.800 M280.595 198.111 C 280.443 199.527,280.392 201.026,280.480 201.442 C 280.569 201.859,280.777 200.784,280.942 199.054 C 281.107 197.324,281.158 195.825,281.056 195.723 C 280.954 195.621,280.746 196.695,280.595 198.111 M121.474 201.400 C 121.597 203.160,121.765 204.675,121.849 204.767 C 122.132 205.079,121.907 200.605,121.578 199.400 C 121.378 198.664,121.337 199.438,121.474 201.400 M279.795 207.311 C 279.643 208.727,279.592 210.226,279.680 210.642 C 279.769 211.059,279.977 209.984,280.142 208.254 C 280.307 206.524,280.358 205.025,280.256 204.923 C 280.154 204.821,279.946 205.895,279.795 207.311 M122.245 210.000 C 122.362 211.650,122.580 213.125,122.729 213.278 C 122.878 213.432,146.940 213.635,176.200 213.731 C 214.640 213.857,221.410 213.823,200.600 213.609 C 184.760 213.447,160.775 213.288,147.300 213.257 L 122.800 213.200 122.777 211.700 C 122.764 210.875,122.591 209.480,122.392 208.600 C 122.111 207.356,122.078 207.667,122.245 210.000 M279.092 215.600 C 278.935 216.810,278.829 218.610,278.857 219.600 C 278.893 220.904,279.003 220.517,279.255 218.200 C 279.658 214.511,279.519 212.305,279.092 215.600 M244.509 215.600 C 244.509 216.590,244.587 216.995,244.682 216.500 C 244.778 216.005,244.778 215.195,244.682 214.700 C 244.587 214.205,244.509 214.610,244.509 215.600 M243.720 222.000 C 243.720 223.210,243.795 223.705,243.887 223.100 C 243.978 222.495,243.978 221.505,243.887 220.900 C 243.795 220.295,243.720 220.790,243.720 222.000 M278.281 224.956 C 278.127 226.032,278.024 227.742,278.053 228.756 C 278.093 230.148,278.191 229.816,278.453 227.400 C 278.843 223.796,278.714 221.949,278.281 224.956 M242.863 228.400 C 242.823 229.170,242.706 230.520,242.602 231.400 L 242.412 233.000 242.823 231.400 C 243.048 230.520,243.166 229.170,243.084 228.400 L 242.934 227.000 242.863 228.400 M124.156 230.171 C 124.035 230.485,124.016 231.160,124.114 231.671 C 124.249 232.378,124.304 232.290,124.346 231.300 L 124.400 230.000 142.200 230.000 L 160.000 230.000 160.047 231.700 C 160.073 232.635,160.239 233.940,160.415 234.600 C 160.624 235.381,160.667 234.893,160.537 233.200 C 160.427 231.770,160.267 230.375,160.181 230.100 C 159.934 229.308,124.460 229.377,124.156 230.171 M277.481 234.156 C 277.327 235.232,277.224 236.942,277.253 237.956 C 277.293 239.348,277.391 239.016,277.653 236.600 C 278.043 232.996,277.914 231.149,277.481 234.156 M242.065 234.800 C 242.025 235.570,241.904 236.920,241.797 237.800 L 241.603 239.400 242.023 238.062 C 242.254 237.327,242.374 235.977,242.291 235.062 C 242.148 233.491,242.136 233.477,242.065 234.800 M124.698 238.600 C 124.815 240.800,124.975 242.675,125.055 242.767 C 125.327 243.079,125.142 238.205,124.813 236.400 C 124.594 235.197,124.556 235.926,124.698 238.600 M160.840 238.633 C 160.862 239.495,161.033 240.650,161.221 241.200 C 161.442 241.848,161.480 241.355,161.331 239.800 C 161.063 237.020,160.782 236.351,160.840 238.633 M241.070 243.357 C 240.911 244.653,240.861 245.794,240.960 245.893 C 241.226 246.159,241.703 242.618,241.519 241.747 C 241.432 241.336,241.230 242.060,241.070 243.357 M276.656 243.845 C 276.515 244.872,276.425 246.632,276.455 247.756 C 276.493 249.186,276.611 248.665,276.845 246.024 C 277.200 242.025,277.086 240.708,276.656 243.845 M161.640 245.233 C 161.662 246.205,161.831 247.450,162.016 248.000 C 162.226 248.627,162.266 248.030,162.123 246.400 C 161.855 243.356,161.583 242.698,161.640 245.233 M125.500 248.000 C 125.617 250.090,125.776 251.875,125.856 251.967 C 126.136 252.290,125.949 247.378,125.622 245.800 C 125.401 244.738,125.360 245.477,125.500 248.000 M240.464 248.650 C 240.429 249.338,240.311 250.507,240.201 251.250 L 240.003 252.600 240.424 251.258 C 240.655 250.520,240.773 249.350,240.686 248.658 L 240.528 247.400 240.464 248.650 M162.440 252.233 C 162.462 253.095,162.633 254.250,162.821 254.800 C 163.042 255.448,163.080 254.955,162.931 253.400 C 162.663 250.620,162.382 249.951,162.440 252.233 M275.856 253.045 C 275.715 254.072,275.625 255.832,275.655 256.956 C 275.693 258.386,275.811 257.865,276.045 255.224 C 276.400 251.225,276.286 249.908,275.856 253.045 M126.300 257.200 C 126.417 259.290,126.576 261.075,126.656 261.167 C 126.936 261.490,126.749 256.578,126.422 255.000 C 126.201 253.938,126.160 254.677,126.300 257.200 M239.663 255.000 C 239.623 255.660,239.504 256.920,239.397 257.800 L 239.203 259.400 239.623 258.060 C 239.854 257.323,239.974 256.063,239.889 255.260 C 239.752 253.966,239.726 253.937,239.663 255.000 M163.254 258.700 C 163.225 259.415,163.275 260.000,163.367 260.000 C 163.459 260.000,163.864 260.114,164.267 260.254 C 164.944 260.488,164.949 260.466,164.328 259.954 C 163.959 259.649,163.578 258.950,163.483 258.400 C 163.338 257.569,163.300 257.620,163.254 258.700 M275.068 261.759 C 274.920 262.833,274.824 264.632,274.854 265.756 C 274.895 267.299,274.993 266.917,275.254 264.200 C 275.629 260.289,275.501 258.600,275.068 261.759 M234.800 260.808 C 234.030 260.982,232.590 261.302,231.600 261.518 C 230.610 261.735,230.202 261.932,230.694 261.956 C 231.555 261.998,234.316 261.427,236.400 260.776 C 237.683 260.375,236.624 260.396,234.800 260.808 M168.600 261.409 C 169.700 261.715,170.960 261.960,171.400 261.955 C 171.840 261.950,171.300 261.696,170.200 261.391 C 169.100 261.085,167.840 260.840,167.400 260.845 C 166.960 260.850,167.500 261.104,168.600 261.409 M126.901 263.800 C 126.905 264.680,126.987 264.993,127.083 264.495 C 127.179 263.998,127.175 263.278,127.075 262.895 C 126.975 262.513,126.896 262.920,126.901 263.800 M176.800 263.225 C 178.450 263.644,179.971 263.932,180.180 263.867 C 180.638 263.722,175.252 262.384,174.400 262.431 C 174.070 262.449,175.150 262.806,176.800 263.225 M225.400 262.819 C 224.842 263.071,225.085 263.107,226.200 262.938 C 227.080 262.804,227.875 262.628,227.967 262.547 C 228.310 262.244,226.168 262.471,225.400 262.819 M221.800 263.619 C 221.242 263.871,221.485 263.907,222.600 263.738 C 223.480 263.604,224.275 263.428,224.367 263.347 C 224.710 263.044,222.568 263.271,221.800 263.619 M180.833 264.147 C 180.925 264.228,181.720 264.404,182.600 264.538 C 183.715 264.707,183.958 264.671,183.400 264.419 C 182.632 264.071,180.490 263.844,180.833 264.147 M185.600 265.200 C 186.968 265.638,188.019 265.638,187.000 265.200 C 186.560 265.011,185.840 264.862,185.400 264.868 C 184.757 264.877,184.796 264.943,185.600 265.200 M214.200 265.200 C 213.181 265.638,214.232 265.638,215.600 265.200 C 216.404 264.943,216.443 264.877,215.800 264.868 C 215.360 264.862,214.640 265.011,214.200 265.200 M127.331 268.200 C 127.333 269.740,127.405 270.321,127.492 269.491 C 127.579 268.661,127.577 267.401,127.489 266.691 C 127.400 265.981,127.329 266.660,127.331 268.200 M188.033 265.747 C 188.125 265.828,188.920 266.004,189.800 266.138 C 190.915 266.307,191.158 266.271,190.600 266.019 C 189.832 265.671,187.690 265.444,188.033 265.747 M210.200 266.019 C 209.642 266.271,209.885 266.307,211.000 266.138 C 211.880 266.004,212.675 265.828,212.767 265.747 C 213.110 265.444,210.968 265.671,210.200 266.019 M192.400 266.800 C 192.950 266.976,193.760 267.120,194.200 267.120 C 194.833 267.120,194.792 267.054,194.000 266.800 C 193.450 266.624,192.640 266.480,192.200 266.480 C 191.567 266.480,191.608 266.546,192.400 266.800 M206.400 266.800 C 205.056 267.231,206.508 267.231,208.200 266.800 C 209.278 266.526,209.298 266.494,208.400 266.487 C 207.850 266.483,206.950 266.624,206.400 266.800 M196.200 267.600 C 196.640 267.789,197.270 267.944,197.600 267.944 C 197.978 267.944,197.904 267.817,197.400 267.600 C 196.960 267.411,196.330 267.256,196.000 267.256 C 195.622 267.256,195.696 267.383,196.200 267.600 M202.600 267.600 L 201.800 267.944 202.600 267.944 C 203.040 267.944,203.760 267.789,204.200 267.600 L 205.000 267.256 204.200 267.256 C 203.760 267.256,203.040 267.411,202.600 267.600 M199.300 268.276 C 199.685 268.376,200.315 268.376,200.700 268.276 C 201.085 268.175,200.770 268.093,200.000 268.093 C 199.230 268.093,198.915 268.175,199.300 268.276 M274.493 270.800 C 274.493 271.570,274.575 271.885,274.676 271.500 C 274.776 271.115,274.776 270.485,274.676 270.100 C 274.575 269.715,274.493 270.030,274.493 270.800 M127.701 273.000 C 127.705 273.880,127.787 274.193,127.883 273.695 C 127.979 273.198,127.975 272.478,127.875 272.095 C 127.775 271.713,127.696 272.120,127.701 273.000 M274.131 275.000 C 274.133 276.540,274.205 277.121,274.292 276.291 C 274.379 275.461,274.377 274.201,274.289 273.491 C 274.200 272.781,274.129 273.460,274.131 275.000 M128.131 277.400 C 128.133 278.940,128.205 279.521,128.292 278.691 C 128.379 277.861,128.377 276.601,128.289 275.891 C 128.200 275.181,128.129 275.860,128.131 277.400 M273.701 279.800 C 273.705 280.680,273.787 280.993,273.883 280.495 C 273.979 279.998,273.975 279.278,273.875 278.895 C 273.775 278.513,273.696 278.920,273.701 279.800 M128.669 283.800 C 128.790 285.560,129.016 287.139,129.173 287.309 C 129.329 287.479,129.308 286.309,129.124 284.709 C 128.646 280.534,128.413 280.068,128.669 283.800 M273.331 284.200 C 273.333 285.740,273.405 286.321,273.492 285.491 C 273.579 284.661,273.577 283.401,273.489 282.691 C 273.400 281.981,273.329 282.660,273.331 284.200 M130.600 288.000 C 131.040 288.189,131.760 288.338,132.200 288.332 C 132.843 288.323,132.804 288.257,132.000 288.000 C 130.632 287.562,129.581 287.562,130.600 288.000 M268.834 288.311 C 267.422 288.666,266.448 289.016,266.669 289.090 C 267.107 289.236,271.593 288.141,271.927 287.806 C 272.228 287.506,271.697 287.592,268.834 288.311 M133.600 288.756 C 133.930 288.944,134.920 289.208,135.800 289.342 C 136.809 289.497,137.105 289.464,136.600 289.254 C 135.429 288.766,132.874 288.342,133.600 288.756 M137.633 289.744 C 137.725 289.823,138.340 290.008,139.000 290.156 C 139.876 290.352,140.038 290.315,139.600 290.018 C 139.060 289.653,137.232 289.398,137.633 289.744 M260.880 290.395 C 260.154 290.567,259.447 290.820,259.309 290.958 C 258.971 291.296,261.644 290.776,262.400 290.357 C 263.116 289.960,262.668 289.971,260.880 290.395 M141.818 290.960 C 143.845 291.595,146.210 292.077,145.931 291.798 C 145.661 291.527,141.312 290.392,140.680 290.427 C 140.416 290.441,140.928 290.682,141.818 290.960 M146.833 292.144 C 146.925 292.223,147.540 292.408,148.200 292.556 C 149.076 292.752,149.238 292.715,148.800 292.418 C 148.260 292.053,146.432 291.798,146.833 292.144 M253.600 292.418 C 253.162 292.715,253.324 292.752,254.200 292.556 C 255.671 292.227,255.990 291.998,254.967 292.006 C 254.545 292.009,253.930 292.195,253.600 292.418 M149.633 292.944 C 150.105 293.350,152.043 293.593,151.810 293.216 C 151.668 292.987,151.083 292.800,150.510 292.800 C 149.936 292.800,149.542 292.865,149.633 292.944 M250.400 293.218 C 249.962 293.515,250.124 293.552,251.000 293.356 C 252.471 293.027,252.790 292.798,251.767 292.806 C 251.345 292.809,250.730 292.995,250.400 293.218 M247.200 294.018 C 246.762 294.315,246.924 294.352,247.800 294.156 C 249.271 293.827,249.590 293.598,248.567 293.606 C 248.145 293.609,247.530 293.795,247.200 294.018 M156.033 294.544 C 156.125 294.623,156.740 294.808,157.400 294.956 C 158.276 295.152,158.438 295.115,158.000 294.818 C 157.460 294.453,155.632 294.198,156.033 294.544 M241.200 295.618 C 240.762 295.915,240.924 295.952,241.800 295.756 C 243.271 295.427,243.590 295.198,242.567 295.206 C 242.145 295.209,241.530 295.395,241.200 295.618 M238.000 296.400 C 237.205 296.914,238.204 296.914,239.400 296.400 L 240.200 296.056 239.400 296.034 C 238.960 296.022,238.330 296.187,238.000 296.400 M165.800 297.200 C 166.996 297.714,167.995 297.714,167.200 297.200 C 166.870 296.987,166.240 296.822,165.800 296.834 L 165.000 296.856 165.800 297.200 M169.000 298.000 C 169.440 298.189,170.070 298.344,170.400 298.344 C 170.778 298.344,170.704 298.217,170.200 298.000 C 169.760 297.811,169.130 297.656,168.800 297.656 C 168.422 297.656,168.496 297.783,169.000 298.000 M231.800 298.000 C 230.781 298.438,231.832 298.438,233.200 298.000 C 234.004 297.743,234.043 297.677,233.400 297.668 C 232.960 297.662,232.240 297.811,231.800 298.000 M228.800 298.800 C 228.267 299.145,228.267 299.188,228.800 299.188 C 229.130 299.188,229.670 299.013,230.000 298.800 C 230.533 298.455,230.533 298.412,230.000 298.412 C 229.670 298.412,229.130 298.587,228.800 298.800 M175.200 299.600 C 175.530 299.813,176.070 299.988,176.400 299.988 C 176.933 299.988,176.933 299.945,176.400 299.600 C 176.070 299.387,175.530 299.212,175.200 299.212 C 174.667 299.212,174.667 299.255,175.200 299.600 M178.400 300.400 C 178.730 300.613,179.270 300.788,179.600 300.788 C 180.133 300.788,180.133 300.745,179.600 300.400 C 179.270 300.187,178.730 300.012,178.400 300.012 C 177.867 300.012,177.867 300.055,178.400 300.400 M222.600 300.400 C 222.096 300.617,222.022 300.744,222.400 300.744 C 222.730 300.744,223.360 300.589,223.800 300.400 C 224.304 300.183,224.378 300.056,224.000 300.056 C 223.670 300.056,223.040 300.211,222.600 300.400 M181.400 301.200 C 181.840 301.389,182.470 301.544,182.800 301.544 C 183.178 301.544,183.104 301.417,182.600 301.200 C 182.160 301.011,181.530 300.856,181.200 300.856 C 180.822 300.856,180.896 300.983,181.400 301.200 M184.600 302.000 C 185.040 302.189,185.670 302.344,186.000 302.344 C 186.378 302.344,186.304 302.217,185.800 302.000 C 185.360 301.811,184.730 301.656,184.400 301.656 C 184.022 301.656,184.096 301.783,184.600 302.000 M216.400 302.000 C 215.596 302.257,215.557 302.323,216.200 302.332 C 216.640 302.338,217.360 302.189,217.800 302.000 C 218.819 301.562,217.768 301.562,216.400 302.000 M187.600 302.782 C 187.930 303.005,188.545 303.191,188.967 303.194 C 189.990 303.202,189.671 302.973,188.200 302.644 C 187.324 302.448,187.162 302.485,187.600 302.782 M213.400 302.800 C 212.896 303.017,212.822 303.144,213.200 303.144 C 213.530 303.144,214.160 302.989,214.600 302.800 C 215.104 302.583,215.178 302.456,214.800 302.456 C 214.470 302.456,213.840 302.611,213.400 302.800 M190.600 303.600 C 191.040 303.789,191.670 303.944,192.000 303.944 C 192.378 303.944,192.304 303.817,191.800 303.600 C 191.360 303.411,190.730 303.256,190.400 303.256 C 190.022 303.256,190.096 303.383,190.600 303.600 M210.400 303.600 C 209.576 303.864,209.541 303.926,210.200 303.954 C 210.640 303.973,211.270 303.813,211.600 303.600 C 212.301 303.147,211.814 303.147,210.400 303.600 M207.200 304.400 C 206.376 304.664,206.341 304.726,207.000 304.754 C 207.440 304.773,208.070 304.613,208.400 304.400 C 209.101 303.947,208.614 303.947,207.200 304.400 M196.000 305.021 C 196.990 305.333,198.070 305.579,198.400 305.567 C 198.730 305.556,198.190 305.291,197.200 304.979 C 196.210 304.667,195.130 304.421,194.800 304.433 C 194.470 304.444,195.010 304.709,196.000 305.021 M199.738 306.094 C 199.992 306.256,200.560 306.388,201.000 306.388 C 201.440 306.388,202.008 306.256,202.262 306.094 C 202.516 305.932,201.948 305.800,201.000 305.800 C 200.052 305.800,199.484 305.932,199.738 306.094 " stroke="none" fill="#ea9c94" fill-rule="evenodd"></path></g></svg>