<svg width="70" height="70" viewBox="0 0 100 100" fill="none" xmlns="http://www.w3.org/2000/svg">
<path d="M0 0H100V100H0V0Z" fill="#04295e"/>
<path d="M31.655 88H39.08L40.84 83.765H56.02L57.78 88H65.865L48.76 50.27H48.1L31.655 88ZM43.425 77.33L46.12 70.84C47.22 68.2 48.32 64.13 48.32 64.13C48.32 64.13 49.475 68.2 50.575 70.84L53.27 77.33H43.425Z" fill="#F5F5F5"/>
<path d="M79.2884 88.495C86.1084 88.495 90.7834 84.865 90.7834 76.89V50.6H83.0834V76.78C83.0834 80.63 81.4884 81.62 78.9584 81.62C76.3184 81.62 75.2184 79.805 74.0084 77.66L67.7384 81.455C69.5534 85.305 73.1284 88.495 79.2884 88.495Z" fill="#F5F5F5"/>
</svg>
